<?xml version="1.0" encoding="UTF-8" standalone="no"?>
<!-- Created with Inkscape (http://www.inkscape.org/) -->

<svg
   width="17.25185mm"
   height="17.116009mm"
   viewBox="0 0 17.25185 17.116009"
   version="1.1"
   id="svg1"
   inkscape:export-filename="favicon.png"
   inkscape:export-xdpi="96"
   inkscape:export-ydpi="96"
   inkscape:version="1.4.3 (0d15f75, 2025-12-25)"
   sodipodi:docname="favicon.svg"
   xmlns:inkscape="http://www.inkscape.org/namespaces/inkscape"
   xmlns:sodipodi="http://sodipodi.sourceforge.net/DTD/sodipodi-0.dtd"
   xmlns="http://www.w3.org/2000/svg"
   xmlns:svg="http://www.w3.org/2000/svg">
  <sodipodi:namedview
     id="namedview1"
     pagecolor="#ffffff"
     bordercolor="#000000"
     borderopacity="0.25"
     inkscape:showpageshadow="2"
     inkscape:pageopacity="0.0"
     inkscape:pagecheckerboard="0"
     inkscape:deskcolor="#d1d1d1"
     inkscape:document-units="mm"
     inkscape:zoom="2.7545174"
     inkscape:cx="157.9224"
     inkscape:cy="65.52872"
     inkscape:window-width="1920"
     inkscape:window-height="991"
     inkscape:window-x="1911"
     inkscape:window-y="-9"
     inkscape:window-maximized="1"
     inkscape:current-layer="layer1" />
  <defs
     id="defs1" />
  <g
     inkscape:label="Layer 1"
     inkscape:groupmode="layer"
     id="layer1"
     transform="translate(-13.448292,-88.296869)">
    <ellipse
       style="fill:#784421;stroke:none;stroke-width:0.264583"
       id="path1"
       cx="22.074217"
       cy="96.854874"
       rx="8.6259251"
       ry="8.5580044" />
    <path
       style="font-size:13.0159px;font-family:Santakku;-inkscape-font-specification:Santakku;fill:#ffffff;stroke:#ffffff;stroke-width:0.406746"
       d="m 28.507887,96.544627 q 0.208255,0.169206 0.364446,0.338413 0.169206,0.169207 0.169206,0.416509 v 0 q -0.208254,-0.02603 -0.377461,-0.130159 -0.156191,-0.104127 -0.325397,-0.22127 -0.169207,-0.117143 -0.338414,-0.234287 -0.15619,-0.130159 -0.325397,-0.195238 -0.182223,-0.0781 -0.364445,-0.09111 -0.182223,-0.02603 -0.35143,-0.01302 -0.104127,0.01302 -0.22127,0.05206 -0.117143,0.02603 -0.247302,0.05206 -0.06508,0.05206 -0.143175,0.07809 -0.0781,0.01302 -0.130159,0.01302 -0.325397,0.01302 -0.637779,0 0.02603,0.754922 0.02603,1.509845 0,0.754922 0.02603,1.52286 0,0.22127 0.03905,0.520639 0.05206,0.29936 0.03905,0.5727 0.143175,0.013 0.234286,0.0651 0.182223,0.0911 0.182223,0.18222 0,0.0781 -0.09111,0.15619 -0.0781,0.0651 -0.208254,0.10413 -0.130159,0.039 -0.22127,0.039 -0.455557,0.026 -0.911113,0 -0.455557,-0.039 -0.924129,-0.0651 -0.911113,-0.013 -1.80921,-0.013 -0.885081,-0.013 -1.80921,0.013 -0.50762,0.026 -1.01524,0.0651 -0.50762,0.026 -1.002225,0.0911 -0.260318,0.039 -0.468572,0.19523 -0.195238,0.16921 -0.325397,0.36445 -0.09111,0.14317 -0.182223,0.28635 -0.09111,0.15619 -0.195239,0.28635 -0.104127,0.13016 -0.22127,0.22127 -0.104127,0.0911 -0.22127,0.10413 -0.143175,0.026 -0.22127,-0.10413 -0.06508,-0.13016 -0.01302,-0.2473 0.07809,-0.15619 0.182222,-0.29937 0.117143,-0.14317 0.221271,-0.29936 0.117143,-0.14318 0.195238,-0.31239 0.07809,-0.15619 0.104127,-0.33841 0.0781,-0.54667 0.05206,-1.11937 -0.02603,-0.572696 -0.130159,-1.041269 -0.05206,-0.208254 -0.169207,-0.403493 -0.117143,-0.195238 -0.130159,-0.403492 -0.01302,-0.02603 0.03905,-0.06508 0.05206,-0.03905 0.06508,-0.06508 0.117143,-0.0781 0.260318,-0.03905 0.143175,0.02603 0.247302,0.182222 0.117144,0.195239 0.195239,0.416509 0.07809,0.221271 0.156191,0.468573 0.09111,0.234286 0.195238,0.494604 0.104127,0.247302 0.273334,0.507623 0.09111,0.0521 0.247302,0.13016 -0.01302,-0.390481 0,-0.780958 0.02603,-0.390477 0.02603,-0.780954 0.01302,-0.911113 0,-1.80921 0,-0.898097 -0.05206,-1.80921 -0.05206,-1.01524 -0.195238,-2.017465 -0.03905,-0.260318 -0.208254,-0.455556 -0.169207,-0.208255 -0.364446,-0.325398 -0.130159,-0.0781 -0.286349,-0.169206 -0.156191,-0.104128 -0.28635,-0.208255 -0.130159,-0.104127 -0.234286,-0.208254 -0.09111,-0.104127 -0.104128,-0.208254 -0.02603,-0.156191 0.104128,-0.234287 0.130159,-0.0781 0.247302,-0.02603 0.15619,0.0781 0.299365,0.195238 0.143175,0.104127 0.299366,0.208254 0.156191,0.104128 0.312382,0.195239 0.15619,0.0781 0.338413,0.09111 0.559684,0.05206 1.119367,0.02603 0.5727,-0.03905 1.041272,-0.143175 0.156191,-0.03905 0.28635,-0.117143 0.130159,-0.0781 0.273334,-0.143175 0.05206,-0.06508 0.143175,-0.0781 0.09111,-0.02603 0.169207,0 0.15619,0.0781 0.299365,0.182222 0.143175,0.104127 0.28635,0.208255 0.156191,0.104127 0.312382,0.182222 0.15619,0.0781 0.351429,0.09111 0.377461,0.03905 0.754922,0.01301 0.390477,-0.02603 0.767938,0.02603 0.442541,0.05206 0.872066,0.02603 0.44254,-0.02603 0.885081,0.03905 0.351429,0.05206 0.689842,-0.03905 0.338414,-0.09111 0.676827,-0.182223 0.208255,-0.05206 0.390477,-0.169206 0.182223,-0.130159 0.390477,-0.143175 0.03905,0 0.0781,0.03905 0.03905,0.03905 0.06508,0.06508 0.0781,0.104127 0.03905,0.247302 -0.02603,0.143175 -0.169207,0.247302 -0.182223,0.130159 -0.403493,0.221271 -0.22127,0.0781 -0.468572,0.169206 -0.234286,0.09111 -0.481589,0.195239 -0.234286,0.104127 -0.481588,0.273334 -0.156191,0.234286 -0.260318,0.572699 -0.09111,0.338414 -0.156191,0.728891 -0.05206,0.390477 -0.0781,0.820001 -0.01302,0.429525 -0.01302,0.85905 0.104127,-0.01302 0.208254,-0.01302 0.104128,-0.01302 0.221271,-0.01302 0.130159,-0.117143 0.28635,-0.208255 0.15619,-0.09111 0.208254,-0.130159 0.156191,-0.117143 0.299366,-0.234286 0.143175,-0.117143 0.286349,-0.260318 0.143175,-0.143175 0.325398,-0.44254 0.195238,-0.312382 0.403493,-0.611748 0.22127,-0.299365 0.44254,-0.520636 0.234287,-0.234286 0.442541,-0.234286 -0.06508,0.299366 -0.22127,0.5727 -0.156191,0.260318 -0.312382,0.533652 -0.156191,0.273334 -0.260318,0.572699 -0.09111,0.28635 -0.01302,0.637779 0.03905,0.234287 0.221271,0.403493 0.195238,0.156191 0.403492,0.325398 z m -10.204465,4.165083 -0.72889,-0.4165 -0.117143,0.76793 z m 2.850482,-8.577473 q -0.182222,0.117143 -0.416509,0.208254 -0.22127,0.0781 -0.468572,0.169207 -0.234286,0.09111 -0.481588,0.195238 -0.247302,0.104128 -0.494605,0.273334 -0.143174,0.208255 -0.234286,0.468573 -0.0781,0.260318 -0.143175,0.572699 0.09111,-0.05206 0.208255,-0.02603 0.130159,0.02603 0.208254,0.143175 0.104127,0.156191 0.169207,0.35143 0.06508,0.182222 0.117143,0.377461 0.06508,0.195238 0.156191,0.403493 0.09111,0.208254 0.22127,0.416508 0.195239,0.130159 0.481588,0.221271 0.299366,0.09111 0.637779,0.143175 0.35143,0.05206 0.728891,0.0781 0.377461,0.02603 0.754922,0.02603 -0.01302,-0.208255 -0.02603,-0.429525 0,-0.22127 -0.01302,-0.429525 -0.02603,-0.50762 -0.0781,-1.002224 -0.05206,-0.494604 -0.130159,-1.002224 -0.03905,-0.247302 -0.208255,-0.442541 -0.169206,-0.208254 -0.364445,-0.325397 -0.143175,-0.09111 -0.312381,-0.182223 -0.169207,-0.104127 -0.312382,-0.22127 z m -1.535876,3.657468 -0.104127,0.637779 0.702858,-0.28635 z m -0.885081,-2.538101 0.416509,-0.741906 -0.780954,-0.104127 z m 0.03905,3.162864 q 0.01302,0.208254 0.01302,0.416509 0,0.208254 0,0.416508 0.104128,-0.15619 0.208255,-0.312381 0.117143,-0.156191 0.156191,-0.364445 0.05206,-0.455557 0.02603,-0.924129 -0.02603,-0.468573 -0.104127,-0.846034 -0.02603,-0.130159 -0.09111,-0.247302 -0.06508,-0.117143 -0.104127,-0.234286 -0.0781,0.481588 -0.104128,1.028256 -0.01301,0.533652 0,1.067304 z m 3.865723,4.269212 q -0.05206,-0.45555 -0.02603,-0.898094 0.02603,-0.455557 0.02603,-0.911113 0,-1.171431 -0.02603,-2.342862 -0.22127,0.01302 -0.442541,0.01302 -0.208254,0 -0.429524,0.01302 -0.416509,0.01302 -0.833018,0.05206 -0.416509,0.02603 -0.820002,0.0781 -0.208254,0.02603 -0.377461,0.169206 -0.169206,0.130159 -0.28635,0.28635 -0.130159,0.208255 -0.299365,0.442541 -0.156191,0.234286 -0.338414,0.28635 0,0.403492 0,0.806985 0,0.403493 0.01302,0.806986 0,0.208254 0.03905,0.481588 0.05206,0.273332 0.03905,0.533652 0.559683,0.14318 1.23651,0.19524 0.676827,0.039 1.340638,0.039 h 1.184447 z m 0.377461,-7.236837 0.403493,-0.728891 -0.767938,-0.104127 z m 0.546668,-0.273334 q -0.156191,0.22127 -0.260318,0.559683 -0.09111,0.338414 -0.143175,0.728891 -0.05206,0.390477 -0.0781,0.833017 -0.02603,0.429525 -0.02603,0.85905 0.520636,0 1.028257,0.01302 0.50762,0.01302 1.028256,0.01302 -0.01302,-0.221271 -0.02603,-0.429525 0,-0.22127 -0.01302,-0.442541 -0.03905,-0.50762 -0.09111,-1.002224 -0.03905,-0.494604 -0.117143,-0.989208 -0.02603,-0.182223 -0.130159,-0.338414 -0.104128,-0.156191 -0.221271,-0.260318 -0.247302,0.0781 -0.481588,0.182223 -0.234286,0.09111 -0.468572,0.273334 z m 1.574923,7.536201 q -0.03905,-0.45555 -0.01301,-0.911108 0.02603,-0.455557 0.02603,-0.911113 0,-0.585716 -0.01302,-1.158415 0,-0.5727 -0.01301,-1.158415 -0.104128,0 -0.208255,0 -0.104127,0 -0.208254,-0.01302 -0.403493,-0.01302 -0.820002,-0.01302 -0.416509,-0.01302 -0.820002,-0.01302 v 0.03905 q 0.02603,0.767938 0.02603,1.535876 0.01302,0.754922 0.01302,1.52286 0.01302,0.234286 0.05206,0.546665 0.05206,0.29937 0.02603,0.5727 0.338414,0.013 0.676827,0.013 0.338414,0 0.689843,0.013 0.117143,0 0.273334,-0.013 0.156191,-0.026 0.312381,-0.0391 z m 0.390477,-7.249851 0.390477,-0.728891 -0.754922,-0.09111 z m 2.017465,2.629211 q 0.03905,-0.01302 0.01302,-0.104127 -0.02603,-0.09111 -0.06508,-0.195238 -0.02603,-0.104128 -0.0781,-0.182223 -0.03905,-0.09111 -0.0781,-0.0781 -0.169206,0.09111 -0.247302,0.169206 -0.0781,0.0781 -0.117143,0.143175 -0.03905,0.09111 -0.01302,0.156191 0.143175,0.03905 0.260318,0.05206 0.104128,0.02603 0.195239,0.03905 0.104127,0.01302 0.130159,0 z"
       id="text1"
       aria-label="𒆥" />
  </g>
</svg>
